<svg xmlns="http://www.w3.org/2000/svg" version="1.1" xmlns:xlink="http://www.w3.org/1999/xlink" xmlns:svgjs="http://svgjs.dev/svgjs" width="128" height="128" viewBox="0 0 128 128"><g transform="matrix(0.8046875,0,0,0.8046875,12.221578124999994,20.080617083117374)"><svg viewBox="0 0 96 81" data-background-color="#ffffff" preserveAspectRatio="xMidYMid meet" height="108" width="128" xmlns="http://www.w3.org/2000/svg" xmlns:xlink="http://www.w3.org/1999/xlink"><g id="tight-bounds" transform="matrix(1,0,0,1,0.25950000000000273,0.4345704856381758)"><svg viewBox="0 0 95.481 80.13085902872363" height="80.13085902872363" width="95.481"><g><svg viewBox="0 0 95.481 80.13085902872363" height="80.13085902872363" width="95.481"><g><svg viewBox="0 0 95.481 80.13085902872363" height="80.13085902872363" width="95.481"><g id="textblocktransform"><svg viewBox="0 0 95.481 80.13085902872363" height="80.13085902872363" width="95.481" id="textblock"><g><svg viewBox="0 0 95.481 80.13085902872363" height="80.13085902872363" width="95.481"><g><svg viewBox="0 0 95.481 80.13085902872363" height="80.13085902872363" width="95.481"><g><svg xmlns="http://www.w3.org/2000/svg" xmlns:xlink="http://www.w3.org/1999/xlink" version="1.0" x="0" y="0" viewBox="14.422253903123122 20.1 71.25549219375377 59.800000000000004" enable-background="new 0 0 100 100" xml:space="preserve" height="80.13085902872363" width="95.481" class="icon-icon-0" data-fill-palette-color="accent" id="icon-0"><path d="M84 46.9C83.7 46.9 83.4 46.8 83.1 46.6L50 23.7 16.9 46.6C16.2 47.1 15.2 46.9 14.7 46.2S14.4 44.5 15.1 44L49.1 20.4C49.7 20 50.4 20 50.9 20.4L85 44C85.7 44.5 85.9 45.5 85.4 46.2 85.1 46.7 84.6 46.9 84 46.9" fill="#ffc604" data-fill-palette-color="accent"></path><path d="M56.2 79.9H45.5C44.6 79.9 43.9 79.2 43.9 78.3V68.5H34.1C33.2 68.5 32.5 67.8 32.5 66.9V56.1C32.5 55.2 33.2 54.5 34.1 54.5H43.9V44.7C43.9 43.8 44.6 43.1 45.5 43.1H56.2C57.1 43.1 57.8 43.8 57.8 44.7V54.5H67.6C68.5 54.5 69.2 55.2 69.2 56.1V66.8C69.2 67.7 68.5 68.4 67.6 68.4H57.8V78.2C57.8 79.2 57.1 79.9 56.2 79.9M47.1 76.7H54.6V66.9C54.6 66 55.3 65.3 56.2 65.3H66V57.8H56.2C55.3 57.8 54.6 57.1 54.6 56.2V46.4H47.1V56.2C47.1 57.1 46.4 57.8 45.5 57.8H35.7V65.3H45.5C46.4 65.3 47.1 66 47.1 66.9z" fill="#ffc604" data-fill-palette-color="accent"></path></svg></g></svg></g></svg></g></svg></g></svg></g></svg></g><defs></defs></svg><rect width="95.481" height="80.13085902872363" fill="none" stroke="none" visibility="hidden"></rect></g></svg></g></svg>