<svg xmlns="http://www.w3.org/2000/svg" version="1.1" xmlns:xlink="http://www.w3.org/1999/xlink" xmlns:svgjs="http://svgjs.dev/svgjs" width="2000" height="419" viewBox="0 0 2000 419"><g transform="matrix(1,0,0,1,-1.2121212121212466,-2.0819317981166137)"><svg viewBox="0 0 396 83" data-background-color="#ffffff" preserveAspectRatio="xMidYMid meet" height="419" width="2000" xmlns="http://www.w3.org/2000/svg" xmlns:xlink="http://www.w3.org/1999/xlink"><g id="tight-bounds" transform="matrix(1,0,0,1,0.2400000000000091,0.41241131084410654)"><svg viewBox="0 0 395.52 82.1751773783118" height="82.1751773783118" width="395.52"><g><svg viewBox="0 0 592.188175600167 123.03592326881721" height="82.1751773783118" width="395.52"><g><rect width="8.028586493093162" height="89.47257806451611" x="416.53724212851614" y="16.78167260215055" fill="#3d3839" opacity="1" stroke-width="0" stroke="transparent" fill-opacity="1" class="rect-yte-0" data-fill-palette-color="primary" rx="1%" id="yte-0" data-palette-color="#3d3839"></rect></g><g transform="matrix(1,0,0,1,0,17.00424120430108)"><svg viewBox="0 0 395.52 89.02744086021505" height="89.02744086021505" width="395.52"><g id="textblocktransform"><svg viewBox="0 0 395.52 89.02744086021505" height="89.02744086021505" width="395.52" id="textblock"><g><svg viewBox="0 0 395.52 89.02744086021505" height="89.02744086021505" width="395.52"><g transform="matrix(1,0,0,1,0,0)"><svg width="395.52" viewBox="-0.1 -36.95 208.23 47.1" height="89.02744086021505" data-palette-color="#3d3839"><g class="wordmark-text-0" data-fill-palette-color="primary" id="text-0"><path d="M23.9 0.35L23.9 0.35Q22.1 0.35 19.83-0.3 17.55-0.95 15.08-1.73 12.6-2.5 10.15-2.85L10.15-2.85Q8.45-1.25 6.98-0.58 5.5 0.1 4.35 0.1L4.35 0.1Q2.9 0.1 1.9-0.75 0.9-1.6 0.4-2.93-0.1-4.25-0.1-5.65L-0.1-5.65Q-0.1-7.1 0.43-8.4 0.95-9.7 2.05-10.53 3.15-11.35 4.85-11.35L4.85-11.35Q5.2-11.35 5.6-11.3 6-11.25 6.45-11.15L6.45-11.15Q7.4-14.05 8.13-17.57 8.85-21.1 9.28-24.5 9.7-27.9 9.7-30.4L9.7-30.4Q9.7-31.4 9.6-31.83 9.5-32.25 9.25-32.7L9.25-32.7 9.2-32.85Q9.8-34.45 11.2-35.35 12.6-36.25 14.15-36.25L14.15-36.25Q15.85-36.25 16.95-35.02 18.05-33.8 18.05-30.95L18.05-30.95Q18.05-29.15 17.63-26.48 17.2-23.8 16.45-20.73 15.7-17.65 14.8-14.65 13.9-11.65 13-9.3L13-9.3Q15.2-8.8 17.43-8.15 19.65-7.5 21.8-7.5L21.8-7.5Q23.45-7.5 24.98-8.1 26.5-8.7 27.85-10.3L27.85-10.3Q28.85-9.65 29.33-8.45 29.8-7.25 29.8-5.9L29.8-5.9Q29.8-4.4 29.18-2.98 28.55-1.55 27.25-0.6 25.95 0.35 23.9 0.35ZM42.1-26.75L42.1-26.75Q40.1-26.75 38.82-27.98 37.55-29.2 37.55-31.05L37.55-31.05Q37.55-33.05 39.05-34.5 40.55-35.95 42.7-35.95L42.7-35.95Q44.7-35.95 45.97-34.7 47.25-33.45 47.25-31.6L47.25-31.6Q47.25-29.6 45.75-28.18 44.25-26.75 42.1-26.75ZM38.6 0.2L38.6 0.2Q36.65 0.2 35.1-1.18 33.55-2.55 33.55-5.6L33.55-5.6Q33.55-7.35 34.02-8.88 34.5-10.4 35.12-11.85 35.75-13.3 36.22-14.68 36.7-16.05 36.7-17.4L36.7-17.4Q36.7-18.6 36.3-19.13 35.9-19.65 35.35-19.65L35.35-19.65Q34.5-19.65 33.7-18.55L33.7-18.55 33.35-18.75Q33.55-20.75 34.62-22.18 35.7-23.6 37.27-24.4 38.85-25.2 40.4-25.2L40.4-25.2Q42.3-25.2 43.7-23.98 45.1-22.75 45.1-20L45.1-20Q45.1-18.35 44.62-16.53 44.15-14.7 43.52-12.9 42.9-11.1 42.42-9.55 41.95-8 41.95-6.9L41.95-6.9Q41.95-5.95 42.32-5.55 42.7-5.15 43.15-5.15L43.15-5.15Q43.6-5.15 44.02-5.43 44.45-5.7 44.65-6.05L44.65-6.05 45-5.95Q45-4.1 44.02-2.73 43.05-1.35 41.6-0.58 40.15 0.2 38.6 0.2ZM54.2 10.15L54.2 10.15Q52.75 10.15 51.45 9.63 50.15 9.1 49.65 8.05L49.65 8.05Q50.85 2.95 51.62-1 52.4-4.95 52.85-8.05 53.3-11.15 53.5-13.73 53.7-16.3 53.75-18.7L53.75-18.7Q52.05-18.6 50.5-18.38 48.95-18.15 47.8-17.75L47.8-17.75 47.7-18.1Q49.15-19.55 50.7-20.53 52.25-21.5 53.8-22.1L53.8-22.1 53.8-25.9Q53.8-29.75 55.35-32.18 56.9-34.6 59.32-35.77 61.75-36.95 64.35-36.95L64.35-36.95Q67.8-36.95 69.52-35.3 71.25-33.65 71.25-31.6L71.25-31.6Q71.25-30.1 70.32-28.7 69.4-27.3 67.55-26.38 65.7-25.45 62.9-25.45L62.9-25.45Q63.7-26.9 64.12-28.35 64.55-29.8 64.55-30.9L64.55-30.9Q64.55-31.75 64.3-32.27 64.05-32.8 63.6-32.8L63.6-32.8Q62.65-32.8 61.77-30.43 60.9-28.05 60.9-24.2L60.9-24.2 60.9-23.25Q62.35-23.3 63.67-23.2 65-23.1 66.15-23L66.15-23Q66.25-22.65 66.3-22.25 66.35-21.85 66.35-21.45L66.35-21.45Q66.35-20.7 66.15-19.95 65.95-19.2 65.6-18.4L65.6-18.4Q64.7-18.5 63.55-18.6 62.4-18.7 61.1-18.75L61.1-18.75 61.1-17.65Q61.1-14.9 60.87-11.3 60.65-7.7 60.05-2.75 59.45 2.2 58.2 9.05L58.2 9.05Q56.65 10.15 54.2 10.15ZM79.59 0.35L79.59 0.35Q75.94 0.35 73.54-1.13 71.14-2.6 69.94-5.03 68.74-7.45 68.74-10.25L68.74-10.25Q68.74-12.9 69.77-15.58 70.79-18.25 72.77-20.45 74.74-22.65 77.57-24 80.39-25.35 83.94-25.35L83.94-25.35Q88.34-25.35 90.37-23.38 92.39-21.4 92.39-18.6L92.39-18.6Q92.39-16.2 91.12-14.18 89.84-12.15 87.74-10.93 85.64-9.7 83.14-9.7L83.14-9.7Q81.84-9.7 80.49-10.1 79.14-10.5 77.84-11.35L77.84-11.35Q78.09-8.25 79.64-6.85 81.19-5.45 83.34-5.45L83.34-5.45Q84.84-5.45 86.34-6.03 87.84-6.6 89.12-7.53 90.39-8.45 91.09-9.5L91.09-9.5 91.44-9.25Q91.44-6.65 90.37-4.83 89.29-3 87.54-1.85 85.79-0.7 83.72-0.18 81.64 0.35 79.59 0.35ZM80.74-13.15L80.74-13.15Q82.34-13.15 83.34-14.08 84.34-15 84.84-16.25 85.34-17.5 85.34-18.45L85.34-18.45Q85.34-19.6 84.69-20.38 84.04-21.15 82.89-21.15L82.89-21.15Q81.99-21.15 80.92-20.5 79.84-19.85 78.99-18.28 78.14-16.7 77.89-13.9L77.89-13.9Q79.49-13.15 80.74-13.15Z" fill="#3d3839" data-fill-palette-color="primary"></path><path d="M115.24 0.3L115.24 0.3Q112.09 0.3 109.81-0.98 107.54-2.25 106.06-4.48 104.59-6.7 103.91-9.53 103.24-12.35 103.34-15.4L103.34-15.4Q103.54-20.85 105.34-24.8 107.14-28.75 109.89-31.3 112.64-33.85 115.81-35.08 118.99-36.3 121.94-36.3L121.94-36.3Q124.44-36.3 126.46-35.48 128.49-34.65 129.69-33.08 130.89-31.5 130.89-29.25L130.89-29.25Q130.89-27.5 129.86-25.88 128.84-24.25 126.76-23.23 124.69-22.2 121.44-22.2L121.44-22.2Q121.99-23.8 122.24-25 122.49-26.2 122.49-27.05L122.49-27.05Q122.49-28.8 121.69-29.43 120.89-30.05 119.69-30.05L119.69-30.05Q118.24-30.05 116.94-29 115.64-27.95 114.61-26.18 113.59-24.4 112.99-22.25 112.39-20.1 112.29-17.9L112.29-17.9Q112.09-12.35 113.89-9.5 115.69-6.65 118.54-6.65L118.54-6.65Q120.74-6.65 123.41-8.45 126.09-10.25 128.69-13.9L128.69-13.9 129.34-13.6Q128.69-9.1 126.49-6 124.29-2.9 121.31-1.3 118.34 0.3 115.24 0.3ZM151.04 0.25L151.04 0.25Q149.29 0.25 147.99-0.9 146.69-2.05 146.69-4.65L146.69-4.65Q146.69-4.9 146.69-5.15 146.69-5.4 146.74-5.65L146.74-5.65Q145.24-2.65 143.36-1.23 141.49 0.2 139.59 0.2L139.59 0.2Q137.84 0.2 136.29-1.03 134.74-2.25 133.79-4.65 132.84-7.05 132.84-10.45L132.84-10.45Q132.84-13.95 133.81-16.7 134.79-19.45 136.39-21.35 137.99-23.25 139.89-24.23 141.79-25.2 143.59-25.2L143.59-25.2Q145.59-25.2 147.19-23.98 148.79-22.75 149.39-20.1L149.39-20.1Q149.54-20.95 149.61-21.65 149.69-22.35 149.69-22.6L149.69-22.6Q149.74-23.95 151.06-24.6 152.39-25.25 153.99-25.25L153.99-25.25Q155.39-25.25 156.64-24.7 157.89-24.15 158.34-22.85L158.34-22.85 158.44-22.55Q157.84-21.2 157.24-19.3 156.64-17.4 156.14-15.33 155.64-13.25 155.34-11.28 155.04-9.3 155.04-7.8L155.04-7.8Q155.04-6.15 155.39-5.53 155.74-4.9 156.24-4.9L156.24-4.9Q157.09-4.9 157.79-6.1L157.79-6.1 158.19-5.9Q158.19-4.2 157.09-2.8 155.99-1.4 154.34-0.58 152.69 0.25 151.04 0.25ZM142.89-6.1L142.89-6.1Q144.19-6.1 145.76-8.43 147.34-10.75 148.49-15.1L148.49-15.1Q148.59-15.55 148.69-15.98 148.79-16.4 148.84-16.8L148.84-16.8Q148.04-18.65 147.16-19.43 146.29-20.2 145.44-20.2L145.44-20.2Q144.19-20.2 143.11-18.88 142.04-17.55 141.36-15.55 140.69-13.55 140.69-11.55L140.69-11.55Q140.69-8.8 141.31-7.45 141.94-6.1 142.89-6.1ZM166.88 0.2L166.88 0.2Q165.08 0.2 163.68-1.28 162.28-2.75 162.28-5.45L162.28-5.45Q162.28-6.75 162.58-8.4 162.88-10.05 163.28-11.78 163.68-13.5 163.98-15.03 164.28-16.55 164.28-17.55L164.28-17.55Q164.28-18.6 163.91-19.23 163.53-19.85 162.93-19.85L162.93-19.85Q161.98-19.85 160.98-18.55L160.98-18.55 160.68-18.75Q160.63-19.55 161.03-20.65 161.43-21.75 162.28-22.78 163.13-23.8 164.46-24.5 165.78-25.2 167.58-25.2L167.58-25.2Q170.23-25.2 171.43-23.68 172.63-22.15 172.63-20L172.63-20Q172.63-19.65 172.61-19.28 172.58-18.9 172.53-18.55L172.53-18.55Q174.33-21.8 176.31-23.53 178.28-25.25 179.98-25.25L179.98-25.25Q181.58-25.25 182.33-24 183.08-22.75 183.08-21L183.08-21Q183.08-19.4 182.46-17.75 181.83-16.1 180.61-15.03 179.38-13.95 177.63-14L177.63-14 177.43-14.1Q177.38-15.4 176.58-16.15 175.78-16.9 174.78-16.9L174.78-16.9Q173.43-16.9 172.26-15.55 171.08-14.2 171.08-11.65L171.08-11.65Q171.08-10.1 171.43-8.3 171.78-6.5 171.78-5.25L171.78-5.25Q171.78-3.75 171.08-2.5 170.38-1.25 169.28-0.53 168.18 0.2 166.88 0.2ZM195.33 0.35L195.33 0.35Q191.68 0.35 189.28-1.13 186.88-2.6 185.68-5.03 184.48-7.45 184.48-10.25L184.48-10.25Q184.48-12.9 185.51-15.58 186.53-18.25 188.51-20.45 190.48-22.65 193.31-24 196.13-25.35 199.68-25.35L199.68-25.35Q204.08-25.35 206.11-23.38 208.13-21.4 208.13-18.6L208.13-18.6Q208.13-16.2 206.86-14.18 205.58-12.15 203.48-10.93 201.38-9.7 198.88-9.7L198.88-9.7Q197.58-9.7 196.23-10.1 194.88-10.5 193.58-11.35L193.58-11.35Q193.83-8.25 195.38-6.85 196.93-5.45 199.08-5.45L199.08-5.45Q200.58-5.45 202.08-6.03 203.58-6.6 204.86-7.53 206.13-8.45 206.83-9.5L206.83-9.5 207.18-9.25Q207.18-6.65 206.11-4.83 205.03-3 203.28-1.85 201.53-0.7 199.46-0.18 197.38 0.35 195.33 0.35ZM196.48-13.15L196.48-13.15Q198.08-13.15 199.08-14.08 200.08-15 200.58-16.25 201.08-17.5 201.08-18.45L201.08-18.45Q201.08-19.6 200.43-20.38 199.78-21.15 198.63-21.15L198.63-21.15Q197.73-21.15 196.66-20.5 195.58-19.85 194.73-18.28 193.88-16.7 193.63-13.9L193.63-13.9Q195.23-13.15 196.48-13.15Z" fill="#ffc604" data-fill-palette-color="secondary"></path></g></svg></g></svg></g></svg></g></svg></g><g transform="matrix(1,0,0,1,445.58307075012544,0)"><svg viewBox="0 0 146.60510485004167 123.03592326881721" height="123.03592326881721" width="146.60510485004167"><g><svg xmlns="http://www.w3.org/2000/svg" xmlns:xlink="http://www.w3.org/1999/xlink" version="1.0" x="0" y="0" viewBox="14.422253903123122 20.1 71.25549219375377 59.800000000000004" enable-background="new 0 0 100 100" xml:space="preserve" height="123.03592326881721" width="146.60510485004167" class="icon-icon-0" data-fill-palette-color="accent" id="icon-0"><path d="M84 46.9C83.7 46.9 83.4 46.8 83.1 46.6L50 23.7 16.9 46.6C16.2 47.1 15.2 46.9 14.7 46.2S14.4 44.5 15.1 44L49.1 20.4C49.7 20 50.4 20 50.9 20.4L85 44C85.7 44.5 85.9 45.5 85.4 46.2 85.1 46.7 84.6 46.9 84 46.9" fill="#ffc604" data-fill-palette-color="accent"></path><path d="M56.2 79.9H45.5C44.6 79.9 43.9 79.2 43.9 78.3V68.5H34.1C33.2 68.5 32.5 67.8 32.5 66.9V56.1C32.5 55.2 33.2 54.5 34.1 54.5H43.9V44.7C43.9 43.8 44.6 43.1 45.5 43.1H56.2C57.1 43.1 57.8 43.8 57.8 44.7V54.5H67.6C68.5 54.5 69.2 55.2 69.2 56.1V66.8C69.2 67.7 68.5 68.4 67.6 68.4H57.8V78.2C57.8 79.2 57.1 79.9 56.2 79.9M47.1 76.7H54.6V66.9C54.6 66 55.3 65.3 56.2 65.3H66V57.8H56.2C55.3 57.8 54.6 57.1 54.6 56.2V46.4H47.1V56.2C47.1 57.1 46.4 57.8 45.5 57.8H35.7V65.3H45.5C46.4 65.3 47.1 66 47.1 66.9z" fill="#ffc604" data-fill-palette-color="accent"></path></svg></g></svg></g></svg></g><defs></defs></svg><rect width="395.52" height="82.1751773783118" fill="none" stroke="none" visibility="hidden"></rect></g></svg></g></svg>